<svg xmlns="http://www.w3.org/2000/svg" width="30" height="30" viewBox="0 0 30 30"><defs><style>.a{fill:#a1a6a8;}.b{fill:#fff;}</style></defs><circle class="a" cx="15" cy="15" r="15" transform="translate(0 0)"/><g transform="translate(7.203 10.085)"><path class="b" d="M81.708,1065.9a.508.508,0,0,0-.508.508v8.866a.508.508,0,0,0,.508.508H96.366a.508.508,0,0,0,.508-.508v-8.866a.508.508,0,0,0-.508-.508Zm1.417,1.025H94.958l-5.917,4.954Zm-.9.579,3.8,3.19-3.8,3.431Zm13.633,0v6.621l-3.8-3.431Zm-9.035,3.858,1.889,1.577a.512.512,0,0,0,.659,0l1.889-1.577,3.778,3.4H83.045l3.778-3.4Z" transform="translate(-81.2 -1065.9)"/></g></svg>