<svg xmlns="http://www.w3.org/2000/svg" width="40" height="40" viewBox="0 0 40 40"><defs><style>.a{fill:#f7f8f9;}.b{fill:#737a7e;}</style></defs><circle class="a" cx="20" cy="20" r="20" transform="translate(0 0)"/><g transform="translate(9.604 13.446)"><path class="b" d="M81.877,1065.9a.677.677,0,0,0-.677.677V1078.4a.677.677,0,0,0,.677.677h19.544a.677.677,0,0,0,.677-.677v-11.822a.677.677,0,0,0-.677-.677Zm1.889,1.366H99.544l-7.889,6.606Zm-1.2.772,5.073,4.253-5.073,4.574Zm18.178,0v8.828l-5.073-4.574ZM88.7,1073.183l2.519,2.1a.683.683,0,0,0,.879,0l2.519-2.1,5.037,4.539H83.659l5.037-4.539Z" transform="translate(-81.2 -1065.9)"/></g></svg>