<svg width="30" height="30" viewBox="0 0 30 30" fill="none" xmlns="http://www.w3.org/2000/svg">
<g clip-path="url(#clip0_402_5)">
<path d="M15 30C23.2843 30 30 23.2843 30 15C30 6.71573 23.2843 0 15 0C6.71573 0 0 6.71573 0 15C0 23.2843 6.71573 30 15 30Z" fill="#595959"/>
<path d="M16.5442 13.4558C14.8385 11.7502 12.0732 11.7502 10.3675 13.4558L7.27922 16.5442C5.57359 18.2498 5.57359 21.0152 7.27922 22.7208C8.98485 24.4264 11.7502 24.4264 13.4558 22.7208L15 21.1766" stroke="white" stroke-width="1.5" stroke-linecap="round" stroke-linejoin="round"/>
<path d="M13.4558 16.5442C15.1614 18.2498 17.9268 18.2498 19.6324 16.5442L22.7207 13.4558C24.4264 11.7502 24.4264 8.98485 22.7207 7.27922C21.0151 5.57359 18.2497 5.57359 16.5441 7.27922L15 8.82338" stroke="white" stroke-width="1.5" stroke-linecap="round" stroke-linejoin="round"/>
</g>
<defs>
<clipPath id="clip0_402_5">
<rect width="30" height="30" fill="white"/>
</clipPath>
</defs>
</svg>
